<svg xmlns="http://www.w3.org/2000/svg" xmlns:xlink="http://www.w3.org/1999/xlink" width="374" zoomAndPan="magnify" viewBox="0 0 280.5 280.5" height="374" preserveAspectRatio="xMidYMid meet" version="1.0"><defs><clipPath id="5eae0b883c"><path d="M 0 0 L 280 0 L 280 280 L 0 280 Z M 0 0 " clip-rule="nonzero"/></clipPath></defs><path fill="#ffffff" d="M 278.835938 140.003906 C 278.835938 216.679688 216.675781 278.835938 140 278.835938 C 63.324219 278.835938 1.167969 216.679688 1.167969 140.003906 C 1.167969 63.324219 63.324219 1.167969 140 1.167969 C 216.675781 1.167969 278.835938 63.324219 278.835938 140.003906 " fill-opacity="1" fill-rule="nonzero"/><g clip-path="url(#5eae0b883c)"><path stroke-linecap="butt" transform="matrix(0.936646, 0, 0, -0.936646, 0, 280.000888)" fill="none" stroke-linejoin="miter" d="M 297.696257 149.466306 C 297.696257 67.604214 231.33162 1.243747 149.469528 1.243747 C 67.607436 1.243747 1.24697 67.604214 1.24697 149.466306 C 1.24697 231.332568 67.607436 297.693035 149.469528 297.693035 C 231.33162 297.693035 297.696257 231.332568 297.696257 149.466306 Z M 297.696257 149.466306 " stroke="#dadadc" stroke-width="2.491" stroke-opacity="1" stroke-miterlimit="4"/></g><path fill="#dadada" d="M 96.011719 193.953125 L 92.457031 190.464844 C 91.742188 189.765625 90.597656 189.777344 89.898438 190.492188 C 89.199219 191.203125 89.210938 192.347656 89.925781 193.046875 L 93.480469 196.535156 " fill-opacity="1" fill-rule="nonzero"/><path fill="#dadada" d="M 92.277344 197.824219 L 89.398438 195.003906 L 84.007812 201.113281 C 84.007812 201.113281 85.480469 196.691406 81.546875 193.632812 C 82.546875 196.417969 82.742188 199.007812 80.078125 201.792969 C 77.414062 204.578125 74.472656 208.757812 78.117188 212.265625 " fill-opacity="1" fill-rule="nonzero"/><path fill="#dadada" d="M 184.769531 103.773438 L 174.089844 93.300781 C 173 92.234375 171.253906 92.253906 170.1875 93.339844 C 169.121094 94.429688 169.136719 96.175781 170.226562 97.242188 L 180.90625 107.714844 " fill-opacity="1" fill-rule="nonzero"/><path fill="#dadada" d="M 174.457031 114.320312 L 168.246094 108.234375 C 167.160156 107.167969 165.410156 107.183594 164.34375 108.273438 C 163.277344 109.359375 163.296875 111.109375 164.382812 112.175781 L 170.589844 118.261719 " fill-opacity="1" fill-rule="nonzero"/><path fill="#dadada" d="M 175.792969 112.957031 L 168.179688 105.496094 L 171.410156 101.472656 L 179.386719 109.289062 " fill-opacity="1" fill-rule="nonzero"/><path fill="#dadada" d="M 175.460938 125.804688 L 100.265625 195.765625 L 94.042969 189.664062 L 163.027344 113.617188 " fill-opacity="1" fill-rule="nonzero"/><path fill="#dadada" d="M 95.941406 193.878906 L 99.496094 197.367188 C 100.210938 198.066406 100.222656 199.210938 99.519531 199.925781 C 98.824219 200.636719 97.679688 200.648438 96.964844 199.949219 L 93.40625 196.460938 " fill-opacity="1" fill-rule="nonzero"/><path fill="#dadada" d="M 92.203125 197.75 L 95.078125 200.570312 L 89.078125 206.082031 C 89.078125 206.082031 93.472656 204.523438 96.605469 208.394531 C 93.804688 207.449219 91.210938 207.304688 88.476562 210.027344 C 85.746094 212.746094 81.625 215.769531 78.046875 212.191406 " fill-opacity="1" fill-rule="nonzero"/><path fill="#dadada" d="M 184.71875 103.722656 L 195.402344 114.195312 C 196.492188 115.261719 196.507812 117.007812 195.441406 118.097656 C 194.375 119.183594 192.625 119.203125 191.539062 118.136719 L 180.859375 107.664062 " fill-opacity="1" fill-rule="nonzero"/><path fill="#dadada" d="M 174.382812 114.246094 L 180.589844 120.332031 C 181.675781 121.398438 181.695312 123.144531 180.628906 124.234375 C 179.5625 125.324219 177.8125 125.339844 176.722656 124.273438 L 170.515625 118.1875 " fill-opacity="1" fill-rule="nonzero"/><path fill="#dadada" d="M 175.71875 112.882812 L 183.328125 120.34375 L 187.285156 117.035156 L 179.3125 109.21875 " fill-opacity="1" fill-rule="nonzero"/><path fill="#dadada" d="M 77.238281 217.464844 C 76.101562 218.628906 74.230469 218.648438 73.070312 217.507812 C 71.902344 216.367188 71.886719 214.5 73.027344 213.335938 C 74.167969 212.175781 76.035156 212.152344 77.199219 213.292969 C 78.363281 214.4375 78.378906 216.300781 77.238281 217.464844 " fill-opacity="1" fill-rule="nonzero"/><path fill="#ffffff" d="M 82.398438 211.195312 C 81.53125 212.082031 80.113281 212.097656 79.222656 211.226562 C 78.339844 210.359375 78.328125 208.9375 79.195312 208.054688 C 80.058594 207.167969 81.480469 207.15625 82.367188 208.019531 C 83.253906 208.890625 83.265625 210.3125 82.398438 211.195312 " fill-opacity="1" fill-rule="nonzero"/><path fill="#dadada" d="M 184.316406 193.953125 L 187.871094 190.464844 C 188.585938 189.765625 189.730469 189.777344 190.429688 190.492188 C 191.128906 191.203125 191.117188 192.347656 190.402344 193.046875 L 186.847656 196.535156 " fill-opacity="1" fill-rule="nonzero"/><path fill="#dadada" d="M 188.050781 197.824219 L 190.929688 195.003906 L 196.320312 201.113281 C 196.320312 201.113281 194.847656 196.691406 198.78125 193.632812 C 197.78125 196.417969 197.585938 199.007812 200.25 201.792969 C 202.914062 204.578125 205.855469 208.757812 202.210938 212.265625 " fill-opacity="1" fill-rule="nonzero"/><path fill="#dadada" d="M 95.558594 103.773438 L 106.238281 93.300781 C 107.328125 92.234375 109.074219 92.253906 110.144531 93.339844 C 111.207031 94.429688 111.191406 96.175781 110.105469 97.242188 L 99.421875 107.714844 " fill-opacity="1" fill-rule="nonzero"/><path fill="#dadada" d="M 105.871094 114.320312 L 112.082031 108.234375 C 113.167969 107.167969 114.917969 107.183594 115.984375 108.273438 C 117.050781 109.359375 117.03125 111.109375 115.945312 112.175781 L 109.738281 118.261719 " fill-opacity="1" fill-rule="nonzero"/><path fill="#dadada" d="M 104.539062 112.957031 L 112.148438 105.496094 L 108.917969 101.472656 L 100.941406 109.289062 " fill-opacity="1" fill-rule="nonzero"/><path fill="#dadada" d="M 104.871094 125.804688 L 180.066406 195.765625 L 186.289062 189.664062 L 117.300781 113.617188 " fill-opacity="1" fill-rule="nonzero"/><path fill="#dadada" d="M 184.390625 193.878906 L 180.832031 197.367188 C 180.117188 198.066406 180.109375 199.210938 180.808594 199.925781 C 181.507812 200.636719 182.652344 200.648438 183.363281 199.949219 L 186.921875 196.460938 " fill-opacity="1" fill-rule="nonzero"/><path fill="#dadada" d="M 188.125 197.75 L 185.25 200.570312 L 191.25 206.082031 C 191.25 206.082031 186.855469 204.523438 183.722656 208.394531 C 186.527344 207.449219 189.117188 207.304688 191.851562 210.027344 C 194.582031 212.746094 198.703125 215.769531 202.28125 212.191406 " fill-opacity="1" fill-rule="nonzero"/><path fill="#dadada" d="M 95.609375 103.722656 L 84.925781 114.195312 C 83.839844 115.261719 83.820312 117.007812 84.886719 118.097656 C 85.953125 119.183594 87.703125 119.203125 88.792969 118.136719 L 99.472656 107.664062 " fill-opacity="1" fill-rule="nonzero"/><path fill="#dadada" d="M 105.945312 114.246094 L 99.738281 120.332031 C 98.652344 121.398438 98.632812 123.144531 99.703125 124.234375 C 100.765625 125.324219 102.515625 125.339844 103.605469 124.273438 L 109.8125 118.1875 " fill-opacity="1" fill-rule="nonzero"/><path fill="#dadada" d="M 104.609375 112.882812 L 97 120.34375 L 93.042969 117.035156 L 101.015625 109.21875 " fill-opacity="1" fill-rule="nonzero"/><path fill="#dadada" d="M 203.089844 217.464844 C 204.226562 218.628906 206.097656 218.648438 207.261719 217.507812 C 208.425781 216.367188 208.441406 214.5 207.300781 213.335938 C 206.160156 212.175781 204.292969 212.152344 203.132812 213.292969 C 201.964844 214.4375 201.949219 216.300781 203.089844 217.464844 " fill-opacity="1" fill-rule="nonzero"/><path fill="#ffffff" d="M 197.929688 211.195312 C 198.796875 212.082031 200.214844 212.097656 201.105469 211.226562 C 201.988281 210.359375 202.003906 208.9375 201.136719 208.054688 C 200.269531 207.167969 198.847656 207.15625 197.960938 208.019531 C 197.074219 208.890625 197.0625 210.3125 197.929688 211.195312 " fill-opacity="1" fill-rule="nonzero"/><path fill="#231f20" d="M 124.925781 206.582031 C 124.628906 206.933594 123.957031 207.546875 123.136719 208.871094 C 122.484375 209.925781 122.34375 210.472656 122.148438 211.003906 C 121.804688 211.9375 121.949219 212.972656 122.351562 213.976562 C 122.625 214.667969 123.195312 215.261719 123.882812 215.566406 C 125.410156 216.242188 127.578125 216.390625 128.09375 214.980469 C 128.457031 213.988281 126.359375 213.625 125.828125 212.136719 C 125.4375 211.03125 126.625 209.980469 127.65625 209.96875 C 129.101562 209.949219 131.054688 213.097656 130.203125 215.429688 C 129.195312 218.175781 125.964844 219.324219 122.996094 217.988281 C 121.285156 217.21875 119.902344 215.882812 119.101562 214.21875 C 118.304688 212.554688 118.179688 210.769531 118.757812 209.1875 C 118.898438 208.8125 119.015625 208.4375 119.113281 208.070312 L 119.078125 208.085938 C 118.601562 208.304688 118.097656 208.523438 117.578125 208.75 C 116.011719 209.429688 114.191406 209.441406 112.445312 208.777344 C 110.703125 208.113281 109.246094 206.855469 108.339844 205.234375 C 106.769531 202.421875 107.699219 199.167969 110.414062 197.984375 C 112.714844 196.980469 116.054688 198.664062 116.140625 200.085938 C 116.203125 201.097656 115.222656 202.335938 114.070312 202.03125 C 112.523438 201.621094 112.003906 199.589844 111.023438 200.019531 C 109.628906 200.625 109.929688 202.746094 110.734375 204.1875 C 111.269531 205.148438 112.023438 205.800781 113.054688 206.191406 C 113.761719 206.457031 114.515625 206.433594 115.226562 206.121094 C 115.773438 205.878906 116.308594 205.472656 116.730469 205.078125 C 116.769531 205.042969 116.960938 204.847656 117.019531 204.777344 C 117.75 203.886719 118.898438 201.5625 118.898438 201.5625 C 122.695312 191.140625 110.378906 182.832031 110.378906 182.832031 C 108.121094 180.914062 105.425781 179.402344 102.476562 178.4375 C 100.746094 177.875 100.167969 178.296875 100.011719 178.472656 C 99.976562 178.511719 99.921875 178.605469 99.921875 178.605469 L 97.585938 182.105469 C 97.585938 182.105469 97.484375 182.234375 97.46875 182.253906 C 97.050781 182.65625 96.710938 182.761719 95.230469 182.683594 C 92.945312 182.566406 90.722656 182.148438 88.648438 181.445312 C 76.421875 177.308594 71.664062 164.265625 78.039062 152.382812 L 78.054688 152.34375 C 84.429688 140.460938 104.898438 134.964844 115.976562 141.589844 C 117.859375 142.710938 120.414062 145.140625 121.726562 146.769531 C 122.574219 147.820312 122.636719 148.117188 122.429688 148.59375 C 122.421875 148.617188 122.335938 148.746094 122.335938 148.746094 L 119.847656 151.972656 C 119.847656 151.972656 119.777344 152.050781 119.753906 152.09375 C 119.648438 152.285156 119.5 152.890625 120.992188 153.917969 C 126.097656 157.421875 132.976562 159.222656 139.691406 158.757812 L 139.699219 167 C 130.675781 167.628906 121.792969 165.347656 114.695312 160.585938 C 114.695312 160.585938 111.023438 158.1875 110.933594 155.886719 C 110.851562 153.578125 112.820312 156.226562 114.140625 156.882812 C 114.992188 157.171875 115.429688 155.320312 115.132812 154.222656 C 115.113281 154.148438 115.015625 153.898438 114.988281 153.84375 C 114.160156 152.054688 111.976562 149.734375 110.039062 148.578125 C 103.113281 144.4375 90.351562 147.730469 86.367188 155.160156 L 86.351562 155.199219 C 82.367188 162.628906 85.339844 170.777344 92.980469 173.363281 C 95.125 174.089844 97.570312 174.386719 99.824219 174.0625 C 99.886719 174.054688 100.121094 174.011719 100.171875 174 C 101.46875 173.6875 103.34375 172.351562 102.65625 171.863281 C 101.390625 171.234375 97.746094 171.164062 100.21875 170.03125 C 102.6875 168.898438 106.808594 170.351562 106.808594 170.351562 C 110.566406 171.625 113.921875 173.457031 116.765625 175.753906 C 116.765625 175.753906 136.5 193.261719 124.925781 206.582031 " fill-opacity="1" fill-rule="nonzero"/><path stroke-linecap="butt" transform="matrix(0.936646, 0, 0, -0.936646, 0, 280.000888)" fill="none" stroke-linejoin="miter" d="M 133.375697 78.384871 C 133.058742 78.009529 132.341421 77.354765 131.465623 75.940977 C 130.769155 74.814951 130.619019 74.231086 130.410495 73.663902 C 130.043494 72.667161 130.197801 71.561987 130.62736 70.490177 C 130.919292 69.752004 131.52818 69.118093 132.262182 68.792797 C 133.892835 68.071306 136.207444 67.912829 136.757946 69.418367 C 137.145799 70.477666 134.906258 70.865519 134.339075 72.454467 C 133.922028 73.634709 135.18985 74.756565 136.290853 74.769076 C 137.833926 74.789928 139.919159 71.428532 139.009998 68.938763 C 137.934017 66.006925 134.485041 64.780808 131.315487 66.207108 C 129.488822 67.02869 128.012477 68.454989 127.157531 70.231608 C 126.306756 72.008227 126.173301 73.91413 126.79053 75.603169 C 126.940667 76.003534 127.065781 76.403899 127.170043 76.795923 L 127.132508 76.779241 C 126.623711 76.545695 126.085721 76.312149 125.531049 76.070262 C 123.858692 75.3446 121.915254 75.332089 120.051056 76.041068 C 118.191028 76.750048 116.635444 78.092938 115.667895 79.823682 C 113.991368 82.826418 114.983939 86.300416 117.882413 87.564068 C 120.338818 88.635878 123.904567 86.838407 123.996317 85.320357 C 124.063045 84.240206 123.016258 82.918168 121.78597 83.243464 C 120.134465 83.681363 119.579793 85.850006 118.533006 85.391255 C 117.044149 84.744832 117.365275 82.480269 118.224391 80.941367 C 118.795745 79.915432 119.600645 79.218964 120.701649 78.801917 C 121.456503 78.518326 122.261403 78.543348 123.020428 78.876986 C 123.604293 79.135555 124.175647 79.569283 124.626058 79.9905 C 124.667763 80.028035 124.872115 80.236558 124.934672 80.311626 C 125.71455 81.262493 126.940667 83.74392 126.940667 83.74392 C 130.994361 94.870726 117.844879 103.741308 117.844879 103.741308 C 115.434349 105.789008 112.556727 107.402978 109.408025 108.433084 C 107.560508 109.033631 106.943279 108.58322 106.77646 108.395549 C 106.738926 108.353845 106.680539 108.253753 106.680539 108.253753 L 104.1866 104.517015 C 104.1866 104.517015 104.078168 104.37939 104.061486 104.358538 C 103.615246 103.928979 103.252416 103.816377 101.671809 103.899786 C 99.232086 104.0249 96.85909 104.47114 94.644572 105.221824 C 81.591011 109.638348 76.511383 123.563537 83.317585 136.250097 L 83.334267 136.291801 C 90.140468 148.978361 111.993714 154.846208 123.821158 147.773096 C 125.831323 146.576172 128.558808 143.982142 129.960085 142.243057 C 130.865076 141.121202 130.931804 140.804246 130.710769 140.295449 C 130.702428 140.270427 130.610678 140.132801 130.610678 140.132801 L 127.95409 136.687996 C 127.95409 136.687996 127.879022 136.604586 127.853999 136.558711 C 127.741397 136.354358 127.582919 135.707936 129.176037 134.611103 C 134.626837 130.870195 141.971029 128.947609 149.140061 129.443895 L 149.148402 120.64421 C 139.514624 119.972765 130.030983 122.408318 122.453245 127.492117 C 122.453245 127.492117 118.533006 130.052783 118.437085 132.509188 C 118.349505 134.973934 120.451421 132.146357 121.861038 131.445719 C 122.7702 131.137105 123.237292 133.113906 122.920337 134.285807 C 122.899485 134.365046 122.795223 134.631956 122.76603 134.690342 C 121.881891 136.600416 119.5506 139.077673 117.482048 140.312131 C 110.087811 144.732826 96.462896 141.217123 92.20902 133.284895 L 92.192338 133.24319 C 87.938462 125.310962 91.112187 116.611369 99.26962 113.85052 C 101.559206 113.074813 104.169918 112.757858 106.576278 113.104006 C 106.643005 113.112347 106.893233 113.158222 106.947449 113.170734 C 108.332044 113.504371 110.333868 114.930671 109.599866 115.451979 C 108.248635 116.123424 104.357589 116.198493 106.997495 117.407928 C 109.63323 118.617363 114.033072 117.06595 114.033072 117.06595 C 118.045061 115.706378 121.627492 113.750429 124.663592 111.298194 C 124.663592 111.298194 145.73279 92.606162 133.375697 78.384871 Z M 133.375697 78.384871 " stroke="#ffffff" stroke-width="4" stroke-opacity="1" stroke-miterlimit="4"/><path fill="#231f20" d="M 154.945312 206.582031 C 155.238281 206.933594 155.914062 207.546875 156.730469 208.871094 C 157.382812 209.925781 157.527344 210.472656 157.722656 211.003906 C 158.0625 211.9375 157.917969 212.972656 157.519531 213.976562 C 157.242188 214.667969 156.675781 215.261719 155.984375 215.566406 C 154.457031 216.242188 152.289062 216.390625 151.773438 214.980469 C 151.410156 213.988281 153.507812 213.625 154.039062 212.136719 C 154.429688 211.03125 153.246094 209.980469 152.214844 209.96875 C 150.765625 209.949219 148.8125 213.097656 149.664062 215.429688 C 150.671875 218.175781 153.90625 219.324219 156.875 217.988281 C 158.582031 217.21875 159.964844 215.882812 160.765625 214.21875 C 161.566406 212.554688 161.6875 210.769531 161.109375 209.1875 C 160.972656 208.8125 160.855469 208.4375 160.753906 208.070312 L 160.792969 208.085938 C 161.269531 208.304688 161.773438 208.523438 162.292969 208.75 C 163.855469 209.429688 165.675781 209.441406 167.421875 208.777344 C 169.164062 208.113281 170.625 206.855469 171.527344 205.234375 C 173.097656 202.421875 172.167969 199.167969 169.457031 197.984375 C 167.152344 196.980469 163.816406 198.664062 163.726562 200.085938 C 163.667969 201.097656 164.648438 202.335938 165.796875 202.03125 C 167.34375 201.621094 167.867188 199.589844 168.847656 200.019531 C 170.242188 200.625 169.941406 202.746094 169.132812 204.1875 C 168.601562 205.148438 167.847656 205.800781 166.816406 206.191406 C 166.109375 206.457031 165.351562 206.433594 164.640625 206.121094 C 164.097656 205.878906 163.558594 205.472656 163.140625 205.078125 C 163.097656 205.042969 162.90625 204.847656 162.851562 204.777344 C 162.121094 203.886719 160.972656 201.5625 160.972656 201.5625 C 157.175781 191.140625 169.488281 182.832031 169.488281 182.832031 C 171.746094 180.914062 174.441406 179.402344 177.394531 178.4375 C 179.125 177.875 179.699219 178.296875 179.855469 178.472656 C 179.890625 178.511719 179.949219 178.605469 179.949219 178.605469 L 182.285156 182.105469 C 182.285156 182.105469 182.382812 182.234375 182.402344 182.253906 C 182.816406 182.65625 183.160156 182.761719 184.636719 182.683594 C 186.921875 182.566406 189.144531 182.148438 191.222656 181.445312 C 203.445312 177.308594 208.207031 164.265625 201.828125 152.382812 L 201.8125 152.34375 C 195.441406 140.460938 174.96875 134.964844 163.890625 141.589844 C 162.011719 142.710938 159.453125 145.140625 158.140625 146.769531 C 157.292969 147.820312 157.230469 148.117188 157.4375 148.59375 C 157.449219 148.617188 157.535156 148.746094 157.535156 148.746094 L 160.023438 151.972656 C 160.023438 151.972656 160.089844 152.050781 160.113281 152.09375 C 160.222656 152.285156 160.367188 152.890625 158.878906 153.917969 C 153.773438 157.421875 146.890625 159.222656 140.179688 158.757812 L 140.167969 167 C 149.195312 167.628906 158.074219 165.347656 165.171875 160.585938 C 165.171875 160.585938 168.847656 158.1875 168.933594 155.886719 C 169.019531 153.578125 167.050781 156.226562 165.730469 156.882812 C 164.875 157.171875 164.441406 155.320312 164.734375 154.222656 C 164.753906 154.148438 164.855469 153.898438 164.878906 153.84375 C 165.707031 152.054688 167.894531 149.734375 169.832031 148.578125 C 176.753906 144.4375 189.515625 147.730469 193.5 155.160156 L 193.515625 155.199219 C 197.5 162.628906 194.527344 170.777344 186.886719 173.363281 C 184.742188 174.089844 182.296875 174.386719 180.042969 174.0625 C 179.980469 174.054688 179.746094 174.011719 179.695312 174 C 178.398438 173.6875 176.523438 172.351562 177.210938 171.863281 C 178.480469 171.234375 182.125 171.164062 179.652344 170.03125 C 177.179688 168.898438 173.058594 170.351562 173.058594 170.351562 C 169.300781 171.625 165.945312 173.457031 163.101562 175.753906 C 163.101562 175.753906 143.367188 193.261719 154.945312 206.582031 " fill-opacity="1" fill-rule="nonzero"/><path stroke-linecap="butt" transform="matrix(0.936646, 0, 0, -0.936646, 0, 280.000888)" fill="none" stroke-linejoin="miter" d="M 165.425734 78.384871 C 165.738519 78.009529 166.46001 77.354765 167.331637 75.940977 C 168.028105 74.814951 168.182413 74.231086 168.390936 73.663902 C 168.753767 72.667161 168.599459 71.561987 168.174072 70.490177 C 167.877969 69.752004 167.273251 69.118093 166.535078 68.792797 C 164.904426 68.071306 162.589817 67.912829 162.039315 69.418367 C 161.651462 70.477666 163.891002 70.865519 164.458186 72.454467 C 164.875232 73.634709 163.611581 74.756565 162.510578 74.769076 C 160.963335 74.789928 158.878101 71.428532 159.787263 68.938763 C 160.863243 66.006925 164.31639 64.780808 167.485945 66.207108 C 169.308439 67.02869 170.784784 68.454989 171.63973 70.231608 C 172.494675 72.008227 172.62396 73.91413 172.006731 75.603169 C 171.860764 76.003534 171.73565 76.403899 171.627218 76.795923 L 171.668923 76.779241 C 172.17772 76.545695 172.71571 76.312149 173.270382 76.070262 C 174.938569 75.3446 176.882006 75.332089 178.746205 76.041068 C 180.606233 76.750048 182.165988 78.092938 183.129365 79.823682 C 184.805893 82.826418 183.813322 86.300416 180.919018 87.564068 C 178.458443 88.635878 174.896864 86.838407 174.800943 85.320357 C 174.738386 84.240206 175.785173 82.918168 177.011291 83.243464 C 178.662796 83.681363 179.221638 85.850006 180.268425 85.391255 C 181.757282 84.744832 181.436156 82.480269 180.572869 80.941367 C 180.005686 79.915432 179.200786 79.218964 178.099783 78.801917 C 177.344928 78.518326 176.535857 78.543348 175.776833 78.876986 C 175.197138 79.135555 174.621613 79.569283 174.175373 79.9905 C 174.129498 80.028035 173.925145 80.236558 173.866759 80.311626 C 173.086881 81.262493 171.860764 83.74392 171.860764 83.74392 C 167.807071 94.870726 180.952382 103.741308 180.952382 103.741308 C 183.362912 105.789008 186.240534 107.402978 189.393406 108.433084 C 191.240923 109.033631 191.853982 108.58322 192.020801 108.395549 C 192.058335 108.353845 192.120892 108.253753 192.120892 108.253753 L 194.614831 104.517015 C 194.614831 104.517015 194.719092 104.37939 194.739945 104.358538 C 195.182014 103.928979 195.549015 103.816377 197.125452 103.899786 C 199.565175 104.0249 201.93817 104.47114 204.156859 105.221824 C 217.206249 109.638348 222.290048 123.563537 215.479676 136.250097 L 215.462994 136.291801 C 208.660963 148.978361 186.803547 154.846208 174.976103 147.773096 C 172.970108 146.576172 170.238453 143.982142 168.837176 142.243057 C 167.932185 141.121202 167.865457 140.804246 168.086492 140.295449 C 168.099003 140.270427 168.190754 140.132801 168.190754 140.132801 L 170.847341 136.687996 C 170.847341 136.687996 170.918239 136.604586 170.943262 136.558711 C 171.060035 136.354358 171.214342 135.707936 169.625394 134.611103 C 164.174594 130.870195 156.826232 128.947609 149.66137 129.443895 L 149.648858 120.64421 C 159.286807 119.972765 168.766278 122.408318 176.344016 127.492117 C 176.344016 127.492117 180.268425 130.052783 180.360175 132.509188 C 180.451926 134.973934 178.350011 132.146357 176.940393 131.445719 C 176.027061 131.137105 175.564139 133.113906 175.876924 134.285807 C 175.897776 134.365046 176.006208 134.631956 176.031231 134.690342 C 176.91537 136.600416 179.250831 139.077673 181.319383 140.312131 C 188.70945 144.732826 202.334365 141.217123 206.588241 133.284895 L 206.604923 133.24319 C 210.858799 125.310962 207.685074 116.611369 199.527641 113.85052 C 197.238054 113.074813 194.627342 112.757858 192.220983 113.104006 C 192.154255 113.112347 191.904027 113.158222 191.849811 113.170734 C 190.465216 113.504371 188.463392 114.930671 189.197395 115.451979 C 190.552796 116.123424 194.443842 116.198493 191.803936 117.407928 C 189.164031 118.617363 184.764188 117.06595 184.764188 117.06595 C 180.752199 115.706378 177.169768 113.750429 174.133669 111.298194 C 174.133669 111.298194 153.064471 92.606162 165.425734 78.384871 Z M 165.425734 78.384871 " stroke="#ffffff" stroke-width="4" stroke-opacity="1" stroke-miterlimit="4"/><path stroke-linecap="butt" transform="matrix(0.936646, 0, 0, -0.936646, 0, 280.000888)" fill="none" stroke-linejoin="miter" d="M 268.469626 148.469564 C 268.469626 82.747179 215.191914 29.469466 149.469528 29.469466 C 83.747143 29.469466 30.46943 82.747179 30.46943 148.469564 C 30.46943 214.19195 83.747143 267.469663 149.469528 267.469663 C 215.191914 267.469663 268.469626 214.19195 268.469626 148.469564 Z M 268.469626 148.469564 " stroke="#dadada" stroke-width="2.4" stroke-opacity="1" stroke-miterlimit="4"/><path fill="#dadada" d="M 104.320312 91.671875 C 104.144531 91.957031 103.738281 92.394531 103.738281 92.394531 L 83.554688 112.09375 C 83.554688 112.09375 82.960938 112.679688 82.570312 112.90625 C 81.746094 113.382812 80.085938 113.980469 77.730469 113.074219 C 76.230469 112.492188 72.027344 109.28125 72.496094 102.503906 C 72.96875 95.722656 64.488281 97.066406 64.488281 97.066406 C 64.488281 97.066406 68.253906 90.84375 73.578125 92.777344 C 77.859375 94.332031 80.578125 99.269531 80.578125 99.269531 C 80.578125 99.269531 75.933594 95.789062 76.65625 88.546875 C 77.375 81.3125 68.835938 81.011719 68.835938 81.011719 C 68.835938 81.011719 74.40625 74.6875 80.3125 80.046875 C 86.214844 85.40625 84.285156 86.980469 84.285156 86.980469 C 84.285156 86.980469 85.316406 81.238281 82.007812 78.464844 C 80.792969 77.445312 89.863281 81.554688 93.398438 87.769531 C 93.398438 87.769531 87.066406 82.851562 88.8125 75.851562 C 90.175781 70.394531 94.316406 68.117188 94.316406 68.117188 C 94.316406 68.117188 90.8125 74.554688 93.746094 77.703125 C 96.683594 80.855469 99.960938 80.96875 104.082031 83.6875 C 107.503906 85.949219 105.203125 90.269531 104.320312 91.671875 " fill-opacity="1" fill-rule="nonzero"/><path fill="#ffffff" d="M 79.589844 108.015625 C 79.589844 108.015625 80.863281 109.644531 82.234375 108.679688 C 83.609375 107.71875 84.035156 104.582031 81.207031 103.011719 C 78.375 101.4375 76.546875 99.671875 76.546875 99.671875 C 77.867188 106.046875 79.589844 108.015625 79.589844 108.015625 " fill-opacity="1" fill-rule="nonzero"/><path fill="#ffffff" d="M 92.054688 97.023438 C 91.195312 95.328125 87.894531 89.800781 81.675781 90.328125 C 81.675781 90.328125 83.199219 90.933594 83.667969 93.757812 C 84.132812 96.578125 87.179688 100.675781 90.949219 99.609375 C 92.078125 99.289062 92.320312 98.550781 92.339844 98.039062 C 92.351562 97.734375 92.210938 97.328125 92.054688 97.023438 " fill-opacity="1" fill-rule="nonzero"/><path fill="#ffffff" d="M 93.847656 82.902344 C 93.847656 82.902344 100.785156 84.917969 99.4375 91.519531 C 98.085938 98.125 108.386719 81.328125 93.847656 82.902344 " fill-opacity="1" fill-rule="nonzero"/><path fill="#dadada" d="M 176.816406 91.671875 C 176.996094 91.957031 177.398438 92.394531 177.398438 92.394531 L 197.582031 112.09375 C 197.582031 112.09375 198.179688 112.679688 198.570312 112.90625 C 199.394531 113.382812 201.054688 113.980469 203.40625 113.074219 C 204.910156 112.492188 209.113281 109.28125 208.640625 102.503906 C 208.167969 95.722656 216.652344 97.066406 216.652344 97.066406 C 216.652344 97.066406 212.882812 90.84375 207.558594 92.777344 C 203.28125 94.332031 200.5625 99.269531 200.5625 99.269531 C 200.5625 99.269531 205.203125 95.789062 204.484375 88.546875 C 203.761719 81.3125 212.304688 81.011719 212.304688 81.011719 C 212.304688 81.011719 206.730469 74.6875 200.828125 80.046875 C 194.921875 85.40625 196.851562 86.980469 196.851562 86.980469 C 196.851562 86.980469 195.824219 81.238281 199.132812 78.464844 C 200.347656 77.445312 191.273438 81.554688 187.742188 87.769531 C 187.742188 87.769531 194.070312 82.851562 192.324219 75.851562 C 190.960938 70.394531 186.820312 68.117188 186.820312 68.117188 C 186.820312 68.117188 190.328125 74.554688 187.390625 77.707031 C 184.453125 80.855469 181.175781 80.96875 177.054688 83.6875 C 173.632812 85.949219 175.9375 90.269531 176.816406 91.671875 " fill-opacity="1" fill-rule="nonzero"/><path fill="#ffffff" d="M 204.59375 99.671875 C 204.59375 99.671875 202.765625 101.4375 199.933594 103.011719 C 197.101562 104.582031 197.53125 107.71875 198.902344 108.679688 C 200.277344 109.644531 201.550781 108.015625 201.550781 108.015625 C 201.550781 108.015625 203.269531 106.046875 204.59375 99.671875 " fill-opacity="1" fill-rule="nonzero"/><path fill="#ffffff" d="M 188.796875 98.039062 C 188.820312 98.550781 189.058594 99.289062 190.191406 99.609375 C 193.960938 100.675781 197.003906 96.578125 197.472656 93.757812 C 197.941406 90.933594 199.464844 90.328125 199.464844 90.328125 C 193.242188 89.800781 189.945312 95.328125 189.082031 97.023438 C 188.929688 97.328125 188.785156 97.734375 188.796875 98.039062 " fill-opacity="1" fill-rule="nonzero"/><path fill="#ffffff" d="M 181.703125 91.519531 C 180.351562 84.917969 187.289062 82.902344 187.289062 82.902344 C 172.75 81.328125 183.050781 98.125 181.703125 91.519531 " fill-opacity="1" fill-rule="nonzero"/><path fill="#dadada" d="M 124.925781 206.582031 C 124.628906 206.933594 123.957031 207.546875 123.136719 208.871094 C 122.484375 209.925781 122.34375 210.472656 122.148438 211.003906 C 121.804688 211.9375 121.949219 212.972656 122.351562 213.976562 C 122.625 214.667969 123.195312 215.261719 123.882812 215.566406 C 125.410156 216.242188 127.578125 216.390625 128.09375 214.980469 C 128.457031 213.988281 126.359375 213.625 125.828125 212.136719 C 125.4375 211.03125 126.625 209.980469 127.65625 209.96875 C 129.101562 209.949219 131.054688 213.097656 130.203125 215.429688 C 129.195312 218.175781 125.964844 219.324219 122.996094 217.988281 C 121.285156 217.21875 119.902344 215.882812 119.101562 214.21875 C 118.304688 212.554688 118.179688 210.769531 118.757812 209.1875 C 118.898438 208.8125 119.015625 208.4375 119.113281 208.070312 L 119.078125 208.085938 C 118.601562 208.304688 118.097656 208.523438 117.578125 208.75 C 116.011719 209.429688 114.191406 209.441406 112.445312 208.777344 C 110.703125 208.113281 109.246094 206.855469 108.339844 205.234375 C 106.769531 202.421875 107.699219 199.167969 110.414062 197.984375 C 112.714844 196.980469 116.054688 198.664062 116.140625 200.085938 C 116.203125 201.097656 115.222656 202.335938 114.070312 202.03125 C 112.523438 201.621094 112.003906 199.589844 111.023438 200.019531 C 109.628906 200.625 109.929688 202.746094 110.734375 204.1875 C 111.269531 205.148438 112.023438 205.800781 113.054688 206.191406 C 113.761719 206.457031 114.515625 206.433594 115.226562 206.121094 C 115.773438 205.878906 116.308594 205.472656 116.730469 205.078125 C 116.769531 205.042969 116.960938 204.847656 117.019531 204.777344 C 117.75 203.886719 118.898438 201.5625 118.898438 201.5625 C 122.695312 191.140625 110.378906 182.832031 110.378906 182.832031 C 108.121094 180.914062 105.425781 179.402344 102.476562 178.4375 C 100.746094 177.875 100.167969 178.296875 100.011719 178.472656 C 99.976562 178.511719 99.921875 178.605469 99.921875 178.605469 L 97.585938 182.105469 C 97.585938 182.105469 97.484375 182.234375 97.46875 182.253906 C 97.050781 182.65625 96.710938 182.761719 95.230469 182.683594 C 92.945312 182.566406 90.722656 182.148438 88.648438 181.445312 C 76.421875 177.308594 71.664062 164.265625 78.039062 152.382812 L 78.054688 152.34375 C 84.429688 140.460938 104.898438 134.964844 115.976562 141.589844 C 117.859375 142.710938 120.414062 145.140625 121.726562 146.769531 C 122.574219 147.820312 122.636719 148.117188 122.429688 148.59375 C 122.421875 148.617188 122.335938 148.746094 122.335938 148.746094 L 119.847656 151.972656 C 119.847656 151.972656 119.777344 152.050781 119.753906 152.09375 C 119.648438 152.285156 119.5 152.890625 120.992188 153.917969 C 126.097656 157.421875 132.976562 159.222656 139.691406 158.757812 L 139.699219 167 C 130.675781 167.628906 121.792969 165.347656 114.695312 160.585938 C 114.695312 160.585938 111.023438 158.1875 110.933594 155.886719 C 110.851562 153.578125 112.820312 156.226562 114.140625 156.882812 C 114.992188 157.171875 115.429688 155.320312 115.132812 154.222656 C 115.113281 154.148438 115.015625 153.898438 114.988281 153.84375 C 114.160156 152.054688 111.976562 149.734375 110.039062 148.578125 C 103.113281 144.4375 90.351562 147.730469 86.367188 155.160156 L 86.351562 155.199219 C 82.367188 162.628906 85.339844 170.777344 92.980469 173.363281 C 95.125 174.089844 97.570312 174.386719 99.824219 174.0625 C 99.886719 174.054688 100.121094 174.011719 100.171875 174 C 101.46875 173.6875 103.34375 172.351562 102.65625 171.863281 C 101.390625 171.234375 97.746094 171.164062 100.21875 170.03125 C 102.6875 168.898438 106.808594 170.351562 106.808594 170.351562 C 110.566406 171.625 113.921875 173.457031 116.765625 175.753906 C 116.765625 175.753906 136.5 193.261719 124.925781 206.582031 " fill-opacity="1" fill-rule="nonzero"/><path fill="#dadada" d="M 154.945312 206.582031 C 155.238281 206.933594 155.914062 207.546875 156.730469 208.871094 C 157.382812 209.925781 157.527344 210.472656 157.722656 211.003906 C 158.0625 211.9375 157.917969 212.972656 157.519531 213.976562 C 157.242188 214.667969 156.675781 215.261719 155.984375 215.566406 C 154.457031 216.242188 152.289062 216.390625 151.773438 214.980469 C 151.410156 213.988281 153.507812 213.625 154.039062 212.136719 C 154.429688 211.03125 153.246094 209.980469 152.214844 209.96875 C 150.765625 209.949219 148.8125 213.097656 149.664062 215.429688 C 150.671875 218.175781 153.90625 219.324219 156.875 217.988281 C 158.582031 217.21875 159.964844 215.882812 160.765625 214.21875 C 161.566406 212.554688 161.6875 210.769531 161.109375 209.1875 C 160.972656 208.8125 160.855469 208.4375 160.753906 208.070312 L 160.792969 208.085938 C 161.269531 208.304688 161.773438 208.523438 162.292969 208.75 C 163.855469 209.429688 165.675781 209.441406 167.421875 208.777344 C 169.164062 208.113281 170.625 206.855469 171.527344 205.234375 C 173.097656 202.421875 172.167969 199.167969 169.457031 197.984375 C 167.152344 196.980469 163.816406 198.664062 163.726562 200.085938 C 163.667969 201.097656 164.648438 202.335938 165.796875 202.03125 C 167.34375 201.621094 167.867188 199.589844 168.847656 200.019531 C 170.242188 200.625 169.941406 202.746094 169.132812 204.1875 C 168.601562 205.148438 167.847656 205.800781 166.816406 206.191406 C 166.109375 206.457031 165.351562 206.433594 164.640625 206.121094 C 164.097656 205.878906 163.558594 205.472656 163.140625 205.078125 C 163.097656 205.042969 162.90625 204.847656 162.851562 204.777344 C 162.121094 203.886719 160.972656 201.5625 160.972656 201.5625 C 157.175781 191.140625 169.488281 182.832031 169.488281 182.832031 C 171.746094 180.914062 174.441406 179.402344 177.394531 178.4375 C 179.125 177.875 179.699219 178.296875 179.855469 178.472656 C 179.890625 178.511719 179.949219 178.605469 179.949219 178.605469 L 182.285156 182.105469 C 182.285156 182.105469 182.382812 182.234375 182.402344 182.253906 C 182.816406 182.65625 183.160156 182.761719 184.636719 182.683594 C 186.921875 182.566406 189.144531 182.148438 191.222656 181.445312 C 203.445312 177.308594 208.207031 164.265625 201.828125 152.382812 L 201.8125 152.34375 C 195.441406 140.460938 174.96875 134.964844 163.890625 141.589844 C 162.011719 142.710938 159.453125 145.140625 158.140625 146.769531 C 157.292969 147.820312 157.230469 148.117188 157.4375 148.59375 C 157.449219 148.617188 157.535156 148.746094 157.535156 148.746094 L 160.023438 151.972656 C 160.023438 151.972656 160.089844 152.050781 160.113281 152.09375 C 160.222656 152.285156 160.367188 152.890625 158.878906 153.917969 C 153.773438 157.421875 146.890625 159.222656 140.179688 158.757812 L 140.167969 167 C 149.195312 167.628906 158.074219 165.347656 165.171875 160.585938 C 165.171875 160.585938 168.847656 158.1875 168.933594 155.886719 C 169.019531 153.578125 167.050781 156.226562 165.730469 156.882812 C 164.875 157.171875 164.441406 155.320312 164.734375 154.222656 C 164.753906 154.148438 164.855469 153.898438 164.878906 153.84375 C 165.707031 152.054688 167.894531 149.734375 169.832031 148.578125 C 176.753906 144.4375 189.515625 147.730469 193.5 155.160156 L 193.515625 155.199219 C 197.5 162.628906 194.527344 170.777344 186.886719 173.363281 C 184.742188 174.089844 182.296875 174.386719 180.042969 174.0625 C 179.980469 174.054688 179.746094 174.011719 179.695312 174 C 178.398438 173.6875 176.523438 172.351562 177.210938 171.863281 C 178.480469 171.234375 182.125 171.164062 179.652344 170.03125 C 177.179688 168.898438 173.058594 170.351562 173.058594 170.351562 C 169.300781 171.625 165.945312 173.457031 163.101562 175.753906 C 163.101562 175.753906 143.367188 193.261719 154.945312 206.582031 " fill-opacity="1" fill-rule="nonzero"/><path fill="#dadada" d="M 147.011719 168.3125 C 147.011719 171.242188 144.636719 173.621094 141.703125 173.621094 L 138.039062 173.621094 C 135.105469 173.621094 132.726562 171.242188 132.726562 168.3125 L 132.726562 133.269531 C 132.726562 130.335938 135.105469 127.957031 138.039062 127.957031 L 141.703125 127.957031 C 144.636719 127.957031 147.011719 130.335938 147.011719 133.269531 L 147.011719 168.3125 " fill-opacity="1" fill-rule="nonzero"/><path stroke-linecap="butt" transform="matrix(0.936646, 0, 0, -0.936646, 0, 280.000888)" fill="none" stroke-linejoin="miter" d="M 156.955516 119.242933 C 156.955516 116.115083 154.419872 113.575269 151.287852 113.575269 L 147.375954 113.575269 C 144.243933 113.575269 141.704119 116.115083 141.704119 119.242933 L 141.704119 156.656191 C 141.704119 159.788211 144.243933 162.328025 147.375954 162.328025 L 151.287852 162.328025 C 154.419872 162.328025 156.955516 159.788211 156.955516 156.656191 Z M 156.955516 119.242933 " stroke="#ffffff" stroke-width="2" stroke-opacity="1" stroke-miterlimit="4"/><path fill="#dadada" d="M 144.425781 60.390625 L 147.320312 60.980469 L 158.878906 51.648438 L 157.929688 48.804688 L 145.226562 59.058594 L 144.425781 60.390625 " fill-opacity="1" fill-rule="nonzero"/><path fill="#dadada" d="M 134.085938 68.632812 L 132.835938 69.0625 L 121.808594 77.964844 L 124.105469 79.722656 L 132.777344 72.71875 L 134.085938 68.632812 " fill-opacity="1" fill-rule="nonzero"/><path fill="#dadada" d="M 142.734375 58.042969 L 143.453125 60.191406 L 143.75 60.25 L 145.226562 59.058594 L 154.675781 43.382812 L 151.394531 43.382812 L 142.820312 57.609375 L 142.734375 58.042969 " fill-opacity="1" fill-rule="nonzero"/><path fill="#dadada" d="M 137.066406 72.355469 L 131.648438 76.253906 L 131.722656 76.011719 L 127.789062 82.542969 L 130.03125 84.261719 L 136.996094 72.710938 L 137.066406 72.355469 " fill-opacity="1" fill-rule="nonzero"/><path fill="#dadada" d="M 145.226562 59.058594 L 143.75 60.25 L 144.425781 60.390625 L 145.226562 59.058594 " fill-opacity="1" fill-rule="nonzero"/><path fill="#dadada" d="M 142.671875 57.855469 L 142.820312 57.609375 L 145.605469 43.382812 L 142.742188 43.382812 L 140.929688 52.632812 L 142.671875 57.855469 " fill-opacity="1" fill-rule="nonzero"/><path fill="#dadada" d="M 139.359375 70.707031 L 137.320312 72.171875 L 136.996094 72.710938 L 134.121094 87.390625 L 136.613281 89.296875 L 139.757812 73.242188 L 139.359375 70.707031 " fill-opacity="1" fill-rule="nonzero"/><path fill="#dadada" d="M 142.820312 57.609375 L 142.671875 57.855469 L 142.734375 58.042969 L 142.820312 57.609375 " fill-opacity="1" fill-rule="nonzero"/><path fill="#dadada" d="M 136.996094 72.710938 L 137.320312 72.171875 L 137.066406 72.355469 L 136.996094 72.710938 " fill-opacity="1" fill-rule="nonzero"/><path fill="#dadada" d="M 141.664062 71.238281 L 140.332031 70.304688 L 139.757812 73.242188 L 142.433594 90.308594 L 144.972656 88.363281 L 142.53125 72.808594 L 141.664062 71.238281 " fill-opacity="1" fill-rule="nonzero"/><path fill="#dadada" d="M 137.558594 57.988281 L 139.371094 52.648438 L 137.917969 43.382812 L 135.074219 43.382812 L 137.285156 57.5 L 137.558594 57.988281 " fill-opacity="1" fill-rule="nonzero"/><path fill="#dadada" d="M 140.125 70.15625 L 139.359375 70.707031 L 139.757812 73.242188 L 140.332031 70.304688 L 140.125 70.15625 " fill-opacity="1" fill-rule="nonzero"/><path fill="#dadada" d="M 136.515625 60.332031 L 136.777344 60.289062 L 137.425781 58.375 L 137.285156 57.5 L 129.488281 43.382812 L 126.28125 43.382812 L 134.828125 58.855469 L 136.515625 60.332031 " fill-opacity="1" fill-rule="nonzero"/><path fill="#dadada" d="M 142.363281 71.726562 L 142.53125 72.808594 L 149.296875 85.054688 L 151.554688 83.328125 L 146.90625 74.910156 L 142.363281 71.726562 " fill-opacity="1" fill-rule="nonzero"/><path fill="#dadada" d="M 142.53125 72.808594 L 142.363281 71.726562 L 141.664062 71.238281 L 142.53125 72.808594 " fill-opacity="1" fill-rule="nonzero"/><path fill="#dadada" d="M 137.285156 57.5 L 137.425781 58.375 L 137.558594 57.988281 L 137.285156 57.5 " fill-opacity="1" fill-rule="nonzero"/><path fill="#dadada" d="M 135.714844 60.464844 L 134.828125 58.855469 L 122.625 48.21875 L 121.664062 51.109375 L 132.925781 60.925781 L 135.714844 60.464844 " fill-opacity="1" fill-rule="nonzero"/><path fill="#dadada" d="M 146.390625 69.15625 L 147.992188 74.066406 L 155.3125 80.449219 L 157.589844 78.703125 L 146.839844 69.328125 L 146.390625 69.15625 " fill-opacity="1" fill-rule="nonzero"/><path fill="#dadada" d="M 134.828125 58.855469 L 135.714844 60.464844 L 136.515625 60.332031 L 134.828125 58.855469 " fill-opacity="1" fill-rule="nonzero"/><path fill="#dadada" d="M 145.578125 66.664062 L 146.289062 68.851562 L 146.839844 69.328125 L 162.132812 75.226562 L 164.75 73.226562 L 147.847656 66.707031 L 145.578125 66.664062 " fill-opacity="1" fill-rule="nonzero"/><path fill="#dadada" d="M 132.878906 60.933594 L 120.039062 55.984375 L 119.148438 58.652344 L 127.417969 61.84375 L 132.878906 60.933594 " fill-opacity="1" fill-rule="nonzero"/><path fill="#dadada" d="M 146.839844 69.328125 L 146.289062 68.851562 L 146.390625 69.15625 L 146.839844 69.328125 " fill-opacity="1" fill-rule="nonzero"/><path fill="#dadada" d="M 146.144531 66.050781 L 147.847656 66.707031 L 164 67.015625 L 163.058594 64.1875 L 150.316406 63.945312 L 146.144531 66.050781 " fill-opacity="1" fill-rule="nonzero"/><path fill="#dadada" d="M 133.789062 65.765625 L 129.285156 63.546875 L 117.59375 63.324219 L 116.660156 66.117188 L 131.917969 66.40625 L 133.789062 65.765625 " fill-opacity="1" fill-rule="nonzero"/><path fill="#dadada" d="M 145.578125 66.664062 L 147.847656 66.707031 L 146.144531 66.050781 L 145.484375 66.382812 L 145.578125 66.664062 " fill-opacity="1" fill-rule="nonzero"/><path fill="#dadada" d="M 134.339844 67.847656 L 134.785156 66.460938 L 131.917969 66.40625 L 114.585938 72.34375 L 114.5625 72.417969 L 117.183594 74.425781 L 132.835938 69.0625 L 134.339844 67.847656 " fill-opacity="1" fill-rule="nonzero"/><path fill="#dadada" d="M 153.015625 62.148438 L 161.417969 59.269531 L 160.53125 56.601562 L 147.589844 61.039062 L 153.015625 62.148438 " fill-opacity="1" fill-rule="nonzero"/><path fill="#dadada" d="M 132.835938 69.0625 L 134.085938 68.632812 L 134.339844 67.847656 L 132.835938 69.0625 " fill-opacity="1" fill-rule="nonzero"/><path fill="#dadada" d="M 133.789062 65.765625 L 131.917969 66.40625 L 134.785156 66.460938 L 134.839844 66.285156 L 133.789062 65.765625 " fill-opacity="1" fill-rule="nonzero"/><path fill="#dadada" d="M 132.925781 60.925781 L 132.878906 60.933594 L 132.980469 60.976562 L 132.925781 60.925781 " fill-opacity="1" fill-rule="nonzero"/><path fill="#dadada" d="M 20.902344 112.183594 C 21.078125 111.527344 23.085938 112.304688 23.761719 109.792969 C 23.992188 108.925781 23.667969 107.972656 22.605469 107.683594 C 20.289062 107.0625 19.757812 112.324219 16.195312 111.367188 C 14.480469 110.90625 13.757812 108.960938 14.191406 107.355469 C 14.347656 106.769531 14.621094 106.363281 14.867188 106.070312 C 15.125 105.78125 15.335938 105.597656 15.382812 105.429688 C 15.425781 105.261719 15.296875 105.136719 15.167969 105.058594 L 15.34375 104.402344 L 17.816406 105.066406 L 17.695312 105.511719 C 17.429688 106.503906 15.570312 105.34375 15.03125 107.34375 C 14.832031 108.097656 15.136719 108.910156 15.945312 109.128906 C 18.066406 109.699219 18.484375 104.40625 22.128906 105.386719 C 24.140625 105.925781 25.035156 108.175781 24.523438 110.074219 C 24.1875 111.328125 23.460938 111.851562 23.367188 112.203125 C 23.320312 112.382812 23.421875 112.5 23.585938 112.558594 L 23.351562 113.425781 L 20.757812 112.726562 L 20.902344 112.183594 " fill-opacity="1" fill-rule="nonzero"/><path fill="#dadada" d="M 23.355469 90.65625 L 23.210938 91.019531 C 22.824219 92.003906 20.667969 90.8125 19.863281 92.859375 C 19.058594 94.902344 21.199219 96.257812 22.824219 96.898438 C 24.816406 97.679688 27.425781 97.839844 28.355469 95.484375 C 28.773438 94.421875 28.546875 93.648438 27.921875 92.75 L 27.863281 92.664062 L 28.53125 92.183594 C 29.484375 93.441406 29.6875 94.859375 29.105469 96.339844 C 27.929688 99.324219 25.023438 100.480469 22.046875 99.3125 C 19.453125 98.289062 17.855469 95.75 18.933594 93.007812 C 19.242188 92.226562 19.605469 91.777344 19.925781 91.46875 C 20.238281 91.15625 20.507812 90.984375 20.597656 90.753906 C 20.671875 90.566406 20.601562 90.460938 20.464844 90.34375 L 20.742188 89.632812 L 23.355469 90.65625 " fill-opacity="1" fill-rule="nonzero"/><path fill="#dadada" d="M 25.320312 79.808594 L 25.511719 79.90625 C 26.371094 80.351562 25.261719 80.707031 26.277344 81.230469 L 32.644531 84.5 C 33.660156 85.023438 33.304688 83.914062 34.164062 84.355469 L 34.359375 84.453125 L 32.515625 88.042969 L 32.320312 87.941406 C 31.460938 87.5 32.570312 87.144531 31.554688 86.621094 L 25.1875 83.351562 C 24.171875 82.828125 24.53125 83.9375 23.667969 83.496094 L 23.476562 83.394531 L 25.320312 79.808594 " fill-opacity="1" fill-rule="nonzero"/><path fill="#dadada" d="M 34.046875 73.757812 L 34.570312 72.941406 C 35.25 71.882812 33.976562 71.992188 34.515625 71.152344 L 34.65625 70.933594 L 37.089844 72.496094 L 36.875 72.824219 C 36.421875 73.53125 35.820312 72.492188 35.25 73.378906 L 34.726562 74.195312 L 38.144531 76.390625 L 39.449219 74.359375 C 40.566406 72.617188 38.433594 72.488281 39.035156 71.550781 L 39.222656 71.257812 L 41.472656 72.703125 L 37.097656 79.515625 L 36.878906 79.375 C 36.125 78.890625 37.207031 78.625 36.273438 78.023438 L 30.25 74.152344 C 29.3125 73.554688 29.519531 74.648438 28.765625 74.164062 L 28.546875 74.023438 L 31.984375 68.671875 C 32.195312 68.34375 32.355469 67.910156 32.351562 67.511719 L 34.636719 68.984375 L 34.402344 69.347656 C 33.941406 70.066406 32.871094 68.792969 31.972656 70.191406 L 30.957031 71.773438 L 34.046875 73.757812 " fill-opacity="1" fill-rule="nonzero"/><path fill="#dadada" d="M 46.195312 59.917969 L 42.699219 57.042969 C 41.816406 56.320312 41.929688 57.476562 41.179688 56.863281 L 41.015625 56.726562 L 42.621094 54.769531 L 42.789062 54.90625 C 43.535156 55.523438 42.386719 55.625 43.269531 56.351562 L 49.960938 61.847656 L 49.296875 62.652344 L 39.269531 61.652344 L 44.585938 66.019531 C 45.46875 66.746094 45.417969 65.507812 46.167969 66.125 L 46.335938 66.261719 L 44.601562 68.371094 L 44.433594 68.234375 C 43.683594 67.621094 44.898438 67.4375 44.015625 66.714844 L 38.484375 62.171875 C 37.605469 61.445312 37.664062 62.671875 36.914062 62.058594 L 36.746094 61.921875 L 38.941406 59.25 L 46.195312 59.917969 " fill-opacity="1" fill-rule="nonzero"/><path fill="#dadada" d="M 46.820312 49.796875 C 47.207031 49.722656 47.601562 49.484375 47.882812 49.214844 L 52.398438 44.875 C 52.679688 44.605469 52.929688 44.222656 53.019531 43.835938 L 54.925781 45.816406 L 54.632812 46.097656 C 53.921875 46.777344 53.679688 44.6875 51.90625 46.390625 L 51.519531 46.761719 L 57 52.460938 C 57.792969 53.285156 57.886719 52.050781 58.558594 52.75 L 58.710938 52.90625 L 55.65625 55.839844 L 55.503906 55.683594 C 54.832031 54.988281 56.070312 54.9375 55.28125 54.117188 L 49.800781 48.414062 L 49.414062 48.785156 C 47.644531 50.488281 49.722656 50.816406 49.011719 51.496094 L 48.722656 51.777344 L 46.820312 49.796875 " fill-opacity="1" fill-rule="nonzero"/><path fill="#dadada" d="M 61.28125 37.457031 L 61.414062 37.628906 C 62.015625 38.386719 60.859375 38.253906 61.566406 39.148438 L 66.003906 44.761719 C 66.710938 45.660156 66.847656 44.5 67.449219 45.261719 L 67.582031 45.433594 L 64.417969 47.933594 L 64.285156 47.761719 C 63.683594 47.003906 64.839844 47.136719 64.132812 46.242188 L 59.695312 40.628906 C 58.988281 39.730469 58.851562 40.890625 58.25 40.128906 L 58.117188 39.960938 L 61.28125 37.457031 " fill-opacity="1" fill-rule="nonzero"/><path fill="#dadada" d="M 72.488281 38.34375 L 72.65625 39.386719 C 72.6875 39.621094 72.742188 39.929688 72.882812 40.148438 C 73.300781 40.808594 73.699219 39.628906 74.21875 40.445312 L 74.335938 40.628906 L 71.785156 42.25 L 71.667969 42.066406 C 71.082031 41.140625 72.246094 41.921875 71.835938 39.820312 L 70.488281 32.898438 L 70.199219 32.6875 C 70.136719 32.644531 69.796875 32.429688 69.742188 32.347656 C 69.648438 32.199219 69.804688 32.015625 69.871094 31.902344 L 70.601562 30.757812 C 70.636719 30.679688 70.738281 30.515625 70.824219 30.460938 C 70.96875 30.367188 71.195312 30.585938 71.390625 30.734375 L 78.746094 36.082031 C 79.742188 36.816406 79.796875 35.6875 80.347656 36.554688 L 80.460938 36.738281 L 76.8125 39.054688 L 76.699219 38.871094 C 76.171875 38.042969 77.214844 38.203125 76.878906 37.675781 C 76.785156 37.53125 76.667969 37.453125 76.523438 37.355469 L 75.332031 36.535156 Z M 72.289062 37.511719 L 74.691406 35.984375 L 71.535156 33.707031 L 72.289062 37.511719 " fill-opacity="1" fill-rule="nonzero"/><path fill="#dadada" d="M 96.742188 19.945312 C 96.742188 19.789062 96.738281 19.496094 96.679688 19.347656 C 96.507812 18.902344 95.921875 19.546875 95.628906 18.792969 L 95.550781 18.589844 L 98.003906 17.640625 L 98.082031 17.84375 C 98.394531 18.652344 97.570312 18.210938 97.59375 19.179688 L 97.726562 28.648438 L 96.699219 29.046875 L 90.320312 22.058594 C 89.695312 21.371094 89.367188 22.085938 89.074219 21.332031 L 88.996094 21.128906 L 92.785156 19.660156 L 92.890625 19.933594 C 93.15625 20.621094 92.277344 20.507812 92.445312 20.941406 C 92.472656 21.007812 92.796875 21.332031 92.851562 21.390625 L 96.875 25.769531 L 96.742188 19.945312 " fill-opacity="1" fill-rule="nonzero"/><path fill="#dadada" d="M 107.71875 14.789062 L 107.777344 15 C 108.035156 15.933594 107.023438 15.355469 107.328125 16.457031 L 109.230469 23.355469 C 109.535156 24.457031 110.109375 23.441406 110.367188 24.378906 L 110.425781 24.585938 L 106.539062 25.660156 L 106.480469 25.449219 C 106.222656 24.515625 107.234375 25.09375 106.933594 23.992188 L 105.027344 17.09375 C 104.722656 15.992188 104.148438 17.003906 103.890625 16.070312 L 103.832031 15.863281 L 107.71875 14.789062 " fill-opacity="1" fill-rule="nonzero"/><path fill="#dadada" d="M 122.691406 17.898438 L 121.9375 13.433594 C 121.75 12.308594 121.074219 13.257812 120.914062 12.304688 L 120.878906 12.089844 L 123.371094 11.667969 L 123.40625 11.882812 C 123.570312 12.839844 122.632812 12.160156 122.824219 13.285156 L 124.261719 21.824219 L 123.234375 22 L 116.324219 14.660156 L 117.46875 21.445312 C 117.65625 22.570312 118.433594 21.605469 118.59375 22.5625 L 118.628906 22.773438 L 115.933594 23.230469 L 115.898438 23.015625 C 115.738281 22.058594 116.773438 22.722656 116.585938 21.59375 L 115.394531 14.539062 C 115.207031 13.410156 114.445312 14.375 114.285156 13.421875 L 114.246094 13.207031 L 117.65625 12.632812 L 122.691406 17.898438 " fill-opacity="1" fill-rule="nonzero"/><path fill="#dadada" d="M 138.726562 13.5625 L 138.335938 13.582031 C 137.28125 13.632812 137.488281 11.175781 135.289062 11.277344 C 133.097656 11.378906 132.734375 13.886719 132.816406 15.632812 C 132.917969 17.769531 133.84375 20.21875 136.367188 20.097656 C 137.511719 20.046875 138.121094 19.523438 138.6875 18.585938 L 138.742188 18.496094 L 139.453125 18.914062 C 138.695312 20.296875 137.484375 21.058594 135.894531 21.132812 C 132.691406 21.285156 130.445312 19.101562 130.296875 15.910156 C 130.167969 13.125 131.832031 10.628906 134.777344 10.492188 C 135.613281 10.453125 136.171875 10.601562 136.585938 10.769531 C 136.996094 10.921875 137.265625 11.097656 137.511719 11.085938 C 137.714844 11.078125 137.78125 10.972656 137.832031 10.796875 L 138.59375 10.761719 L 138.726562 13.5625 " fill-opacity="1" fill-rule="nonzero"/><path fill="#dadada" d="M 148.382812 15.339844 L 149.347656 15.402344 C 150.601562 15.484375 149.890625 14.425781 150.886719 14.492188 L 151.144531 14.507812 L 150.953125 17.394531 L 150.566406 17.367188 C 149.726562 17.3125 150.347656 16.28125 149.292969 16.210938 L 148.328125 16.144531 L 148.058594 20.199219 L 150.46875 20.359375 C 152.53125 20.496094 151.613281 18.566406 152.726562 18.640625 L 153.070312 18.664062 L 152.894531 21.332031 L 144.816406 20.796875 L 144.832031 20.535156 C 144.890625 19.640625 145.648438 20.460938 145.722656 19.347656 L 146.199219 12.207031 C 146.273438 11.097656 145.414062 11.808594 145.472656 10.914062 L 145.488281 10.65625 L 151.835938 11.078125 C 152.226562 11.101562 152.679688 11.03125 153.027344 10.835938 L 152.847656 13.546875 L 152.414062 13.519531 C 151.5625 13.464844 152.160156 11.910156 150.5 11.800781 L 148.625 11.675781 L 148.382812 15.339844 " fill-opacity="1" fill-rule="nonzero"/><path fill="#dadada" d="M 161.574219 21.070312 C 161.371094 22.164062 162.308594 21.558594 162.144531 22.441406 L 162.097656 22.695312 L 158.160156 21.96875 L 158.207031 21.714844 C 158.367188 20.832031 159.027344 21.734375 159.226562 20.636719 L 160.523438 13.601562 C 160.726562 12.503906 159.789062 13.113281 159.953125 12.230469 L 160 11.976562 L 165.617188 13.011719 C 166.640625 13.199219 168.171875 14.128906 167.839844 15.933594 C 167.472656 17.921875 165.71875 18.128906 164.410156 17.886719 L 164.027344 17.816406 L 164.019531 17.847656 C 165.117188 18.121094 165.347656 18.546875 165.710938 19.523438 L 166.808594 22.417969 C 167.105469 23.191406 167.683594 22.695312 167.546875 23.433594 L 167.5 23.691406 L 164.398438 23.121094 L 163.09375 19.191406 C 162.953125 18.765625 162.742188 18.007812 162.285156 17.921875 L 162.15625 17.898438 Z M 162.304688 17.101562 L 162.972656 17.226562 C 163.839844 17.386719 165.011719 17.324219 165.324219 15.628906 C 165.574219 14.28125 164.671875 13.660156 164.21875 13.574219 L 162.996094 13.351562 L 162.304688 17.101562 " fill-opacity="1" fill-rule="nonzero"/><path fill="#dadada" d="M 177.113281 20.464844 L 178.042969 20.75 C 179.242188 21.121094 178.796875 19.925781 179.746094 20.21875 L 179.996094 20.296875 L 179.144531 23.058594 L 178.773438 22.945312 C 177.972656 22.695312 178.8125 21.835938 177.800781 21.523438 L 176.878906 21.242188 L 175.679688 25.121094 L 177.988281 25.832031 C 179.964844 26.441406 179.519531 24.355469 180.582031 24.679688 L 180.914062 24.785156 L 180.125 27.339844 L 172.390625 24.957031 L 172.464844 24.707031 C 172.730469 23.851562 173.277344 24.820312 173.605469 23.757812 L 175.710938 16.917969 C 176.039062 15.855469 175.042969 16.347656 175.304688 15.492188 L 175.382812 15.242188 L 181.460938 17.117188 C 181.832031 17.230469 182.292969 17.265625 182.675781 17.15625 L 181.875 19.753906 L 181.457031 19.625 C 180.644531 19.375 181.582031 18 179.992188 17.511719 L 178.195312 16.957031 L 177.113281 20.464844 " fill-opacity="1" fill-rule="nonzero"/><path fill="#dadada" d="M 197.914062 23.402344 C 198.105469 23.746094 198.457031 24.046875 198.800781 24.230469 L 204.335938 27.15625 C 204.679688 27.335938 205.125 27.457031 205.519531 27.421875 L 204.234375 29.851562 L 203.878906 29.660156 C 203.007812 29.199219 204.917969 28.3125 202.746094 27.164062 L 202.269531 26.914062 L 198.574219 33.90625 C 198.042969 34.914062 199.246094 34.621094 198.792969 35.476562 L 198.691406 35.667969 L 194.945312 33.6875 L 195.046875 33.496094 C 195.5 32.640625 195.933594 33.800781 196.464844 32.789062 L 200.164062 25.800781 L 199.691406 25.550781 C 197.515625 24.402344 197.859375 26.476562 196.988281 26.019531 L 196.632812 25.828125 L 197.914062 23.402344 " fill-opacity="1" fill-rule="nonzero"/><path fill="#dadada" d="M 211.019531 36.570312 L 211.820312 37.113281 C 212.859375 37.824219 212.785156 36.546875 213.609375 37.109375 L 213.824219 37.257812 L 212.195312 39.644531 L 211.871094 39.425781 C 211.179688 38.953125 212.238281 38.378906 211.367188 37.785156 L 210.566406 37.238281 L 208.273438 40.59375 L 210.269531 41.953125 C 211.976562 43.121094 212.167969 40.992188 213.085938 41.621094 L 213.375 41.816406 L 211.867188 44.023438 L 205.179688 39.460938 L 205.324219 39.246094 C 205.832031 38.503906 206.066406 39.59375 206.695312 38.675781 L 210.730469 32.765625 C 211.355469 31.84375 210.257812 32.019531 210.761719 31.28125 L 210.910156 31.066406 L 216.164062 34.652344 C 216.484375 34.871094 216.914062 35.039062 217.308594 35.050781 L 215.777344 37.292969 L 215.417969 37.050781 C 214.714844 36.570312 216.015625 35.53125 214.644531 34.59375 L 213.089844 33.535156 L 211.019531 36.570312 " fill-opacity="1" fill-rule="nonzero"/><path fill="#dadada" d="M 224.519531 49.097656 L 227.488281 45.683594 C 228.234375 44.820312 227.074219 44.902344 227.707031 44.171875 L 227.851562 44.007812 L 229.761719 45.667969 L 229.617188 45.832031 C 228.984375 46.5625 228.914062 45.410156 228.164062 46.269531 L 222.480469 52.808594 L 221.695312 52.125 L 222.972656 42.125 L 218.460938 47.320312 C 217.710938 48.179688 218.949219 48.167969 218.3125 48.898438 L 218.171875 49.0625 L 216.109375 47.269531 L 216.25 47.105469 C 216.886719 46.375 217.035156 47.59375 217.785156 46.730469 L 222.476562 41.328125 C 223.226562 40.46875 222 40.492188 222.636719 39.761719 L 222.777344 39.597656 L 225.386719 41.863281 L 224.519531 49.097656 " fill-opacity="1" fill-rule="nonzero"/><path fill="#dadada" d="M 233.375 55.773438 L 234.027344 56.488281 C 234.875 57.421875 235.097656 56.160156 235.769531 56.898438 L 235.945312 57.089844 L 233.808594 59.039062 L 233.546875 58.75 C 232.980469 58.128906 234.140625 57.816406 233.429688 57.035156 L 232.777344 56.320312 L 229.773438 59.054688 L 231.402344 60.839844 C 232.792969 62.367188 233.472656 60.34375 234.21875 61.164062 L 234.453125 61.421875 L 232.476562 63.222656 L 227.023438 57.238281 L 227.21875 57.0625 C 227.878906 56.460938 227.859375 57.574219 228.679688 56.824219 L 233.972656 52.003906 C 234.792969 51.253906 233.683594 51.171875 234.34375 50.570312 L 234.539062 50.394531 L 238.820312 55.097656 C 239.085938 55.386719 239.460938 55.648438 239.847656 55.75 L 237.835938 57.578125 L 237.542969 57.257812 C 236.96875 56.625 238.476562 55.917969 237.355469 54.691406 L 236.089844 53.300781 L 233.375 55.773438 " fill-opacity="1" fill-rule="nonzero"/><path fill="#dadada" d="M 235.828125 67.335938 L 236.039062 67.183594 C 236.765625 66.660156 236.617188 67.761719 237.519531 67.113281 L 243.324219 62.925781 C 244.214844 62.285156 243.132812 62.066406 243.859375 61.542969 L 244.070312 61.390625 L 246.996094 65.449219 C 247.910156 66.714844 248.476562 68.390625 246.976562 69.472656 C 245.78125 70.335938 244.375 69.726562 243.492188 68.722656 L 243.46875 68.738281 C 244.265625 69.894531 244.824219 71.703125 243.261719 72.828125 C 241.257812 74.273438 239.574219 72.527344 238.691406 71.308594 Z M 238.351562 69.453125 L 238.707031 69.945312 C 239.410156 70.917969 240.269531 71.867188 241.796875 70.765625 C 243.261719 69.710938 242.609375 68.359375 242.121094 67.683594 L 241.671875 67.058594 Z M 242.328125 66.585938 L 242.589844 66.949219 C 243.191406 67.78125 244.101562 68.425781 245.320312 67.546875 C 246.539062 66.667969 246.144531 65.652344 245.839844 65.230469 L 245.28125 64.457031 L 242.328125 66.585938 " fill-opacity="1" fill-rule="nonzero"/><path fill="#dadada" d="M 246.753906 81.140625 C 245.78125 81.679688 246.84375 82.015625 246.058594 82.449219 L 245.832031 82.578125 L 243.894531 79.074219 L 244.121094 78.945312 C 244.90625 78.511719 244.625 79.59375 245.601562 79.054688 L 251.863281 75.589844 C 252.835938 75.050781 251.773438 74.714844 252.558594 74.28125 L 252.785156 74.152344 L 255.550781 79.148438 C 256.054688 80.0625 256.308594 81.835938 254.703125 82.726562 C 252.933594 83.707031 251.65625 82.476562 251.015625 81.3125 L 250.824219 80.972656 L 250.800781 80.984375 C 251.28125 82.007812 251.101562 82.453125 250.574219 83.355469 L 249.039062 86.042969 C 248.628906 86.765625 249.375 86.894531 248.71875 87.257812 L 248.492188 87.382812 L 246.964844 84.625 L 249.175781 81.125 C 249.410156 80.746094 249.863281 80.097656 249.640625 79.695312 L 249.578125 79.582031 Z M 250.285156 79.1875 L 250.613281 79.785156 C 251.042969 80.554688 251.835938 81.421875 253.339844 80.589844 C 254.542969 79.925781 254.449219 78.835938 254.226562 78.429688 L 253.625 77.339844 L 250.285156 79.1875 " fill-opacity="1" fill-rule="nonzero"/><path fill="#dadada" d="M 254.214844 93.003906 L 253.160156 92.976562 C 252.921875 92.964844 252.609375 92.964844 252.367188 93.058594 C 251.644531 93.351562 252.730469 93.960938 251.828125 94.320312 L 251.628906 94.402344 L 250.503906 91.597656 L 250.703125 91.515625 C 251.722656 91.105469 250.738281 92.109375 252.882812 92.089844 L 259.929688 92.03125 L 260.191406 91.789062 C 260.246094 91.734375 260.519531 91.441406 260.613281 91.402344 C 260.773438 91.335938 260.925781 91.523438 261.023438 91.609375 L 262.019531 92.535156 C 262.085938 92.585938 262.230469 92.714844 262.269531 92.808594 C 262.332031 92.96875 262.078125 93.148438 261.894531 93.316406 L 255.292969 99.566406 C 254.382812 100.414062 255.484375 100.671875 254.535156 101.054688 L 254.332031 101.136719 L 252.722656 97.125 L 252.921875 97.042969 C 253.835938 96.679688 253.488281 97.675781 254.0625 97.441406 C 254.226562 97.378906 254.324219 97.273438 254.445312 97.148438 L 255.46875 96.128906 Z M 255.066406 92.957031 L 256.128906 95.601562 L 258.945312 92.914062 L 255.066406 92.957031 " fill-opacity="1" fill-rule="nonzero"/><path fill="#dadada" d="M 258.59375 105.753906 C 258.769531 106.410156 256.644531 106.75 257.328125 109.261719 C 257.566406 110.125 258.328125 110.785156 259.390625 110.496094 C 261.707031 109.867188 259.507812 105.054688 263.066406 104.085938 C 264.78125 103.617188 266.386719 104.933594 266.824219 106.539062 C 266.980469 107.125 266.949219 107.613281 266.886719 107.988281 C 266.8125 108.367188 266.71875 108.632812 266.765625 108.800781 C 266.808594 108.96875 266.984375 109.011719 267.136719 109.015625 L 267.316406 109.671875 L 264.847656 110.34375 L 264.726562 109.898438 C 264.457031 108.90625 266.644531 108.96875 266.101562 106.972656 C 265.894531 106.222656 265.222656 105.671875 264.414062 105.890625 C 262.292969 106.46875 264.601562 111.25 260.960938 112.242188 C 258.949219 112.789062 257.046875 111.300781 256.53125 109.402344 C 256.1875 108.148438 256.546875 107.332031 256.453125 106.984375 C 256.402344 106.800781 256.257812 106.75 256.085938 106.785156 L 255.847656 105.917969 L 258.441406 105.210938 L 258.59375 105.753906 " fill-opacity="1" fill-rule="nonzero"/><path fill="#dadada" d="M 23.976562 171.070312 L 23.765625 171.125 C 22.828125 171.371094 23.421875 170.378906 22.316406 170.667969 L 17.085938 172.039062 C 15.644531 172.414062 14.640625 173.082031 15.074219 174.734375 C 15.570312 176.636719 17.160156 176.59375 17.648438 176.464844 L 23.4375 174.945312 C 24.542969 174.65625 23.539062 174.082031 24.476562 173.835938 L 24.6875 173.78125 L 25.324219 176.214844 L 25.117188 176.269531 C 24.179688 176.515625 24.769531 175.523438 23.664062 175.8125 L 17.875 177.332031 C 16.03125 177.816406 14.628906 176.523438 14.082031 174.4375 C 13.535156 172.34375 14.007812 170.378906 16.160156 169.816406 L 21.710938 168.359375 C 22.816406 168.070312 21.8125 167.496094 22.75 167.25 L 22.960938 167.195312 L 23.976562 171.070312 " fill-opacity="1" fill-rule="nonzero"/><path fill="#dadada" d="M 24.519531 191.300781 L 28.714844 189.597656 C 29.769531 189.167969 28.699219 188.714844 29.59375 188.351562 L 29.796875 188.269531 L 30.75 190.613281 L 30.546875 190.695312 C 29.648438 191.058594 30.109375 190 29.050781 190.429688 L 21.027344 193.6875 L 20.636719 192.722656 L 26.300781 184.382812 L 19.921875 186.972656 C 18.863281 187.402344 19.976562 187.949219 19.078125 188.316406 L 18.878906 188.398438 L 17.851562 185.863281 L 18.050781 185.785156 C 18.949219 185.417969 18.527344 186.574219 19.585938 186.144531 L 26.214844 183.449219 C 27.273438 183.023438 26.167969 182.488281 27.066406 182.125 L 27.265625 182.042969 L 28.566406 185.242188 L 24.519531 191.300781 " fill-opacity="1" fill-rule="nonzero"/><path fill="#dadada" d="M 35.492188 199.832031 L 35.300781 199.933594 C 34.449219 200.394531 34.78125 199.277344 33.777344 199.820312 L 27.480469 203.21875 C 26.472656 203.761719 27.589844 204.09375 26.738281 204.554688 L 26.546875 204.65625 L 24.632812 201.105469 L 24.824219 201.003906 C 25.675781 200.542969 25.34375 201.660156 26.347656 201.117188 L 32.644531 197.722656 C 33.652344 197.179688 32.535156 196.84375 33.386719 196.382812 L 33.578125 196.28125 L 35.492188 199.832031 " fill-opacity="1" fill-rule="nonzero"/><path fill="#dadada" d="M 41.40625 212.265625 C 41.558594 212.230469 41.839844 212.160156 41.972656 212.070312 C 42.367188 211.800781 41.601562 211.375 42.269531 210.917969 L 42.449219 210.796875 L 43.9375 212.964844 L 43.757812 213.089844 C 43.042969 213.578125 43.285156 212.679688 42.34375 212.917969 L 33.160156 215.21875 L 32.539062 214.3125 L 37.875 206.5 C 38.402344 205.734375 37.628906 205.582031 38.296875 205.125 L 38.476562 205 L 40.773438 208.351562 L 40.535156 208.515625 C 39.925781 208.933594 39.832031 208.050781 39.449219 208.3125 C 39.390625 208.351562 39.148438 208.746094 39.105469 208.808594 L 35.765625 213.730469 L 41.40625 212.265625 " fill-opacity="1" fill-rule="nonzero"/><path fill="#dadada" d="M 46.269531 222.835938 L 46.910156 223.5625 C 47.742188 224.507812 47.984375 223.253906 48.644531 224 L 48.816406 224.199219 L 46.648438 226.109375 L 46.390625 225.816406 C 45.835938 225.1875 47 224.890625 46.304688 224.097656 L 45.664062 223.371094 L 42.613281 226.058594 L 44.210938 227.871094 C 45.578125 229.421875 46.289062 227.40625 47.023438 228.242188 L 47.253906 228.503906 L 45.246094 230.269531 L 39.894531 224.195312 L 40.089844 224.019531 C 40.761719 223.429688 40.722656 224.542969 41.558594 223.808594 L 46.929688 219.078125 C 47.765625 218.34375 46.65625 218.242188 47.328125 217.648438 L 47.523438 217.476562 L 51.726562 222.25 C 51.984375 222.542969 52.355469 222.8125 52.738281 222.921875 L 50.699219 224.714844 L 50.414062 224.390625 C 49.847656 223.75 51.367188 223.070312 50.269531 221.820312 L 49.027344 220.410156 L 46.269531 222.835938 " fill-opacity="1" fill-rule="nonzero"/><path fill="#dadada" d="M 53.75 236.441406 C 53.007812 237.273438 54.125 237.238281 53.527344 237.910156 L 53.355469 238.101562 L 50.363281 235.441406 L 50.535156 235.246094 C 51.132812 234.578125 51.226562 235.6875 51.96875 234.855469 L 56.722656 229.507812 C 57.460938 228.675781 56.347656 228.710938 56.945312 228.039062 L 57.117188 227.847656 L 61.382812 231.640625 C 62.164062 232.332031 62.992188 233.921875 61.773438 235.292969 C 60.425781 236.808594 58.816406 236.070312 57.824219 235.1875 L 57.53125 234.929688 L 57.511719 234.949219 C 58.308594 235.753906 58.285156 236.234375 58.089844 237.261719 L 57.527344 240.304688 C 57.382812 241.121094 58.132812 240.996094 57.632812 241.558594 L 57.460938 241.753906 L 55.105469 239.660156 L 56.027344 235.621094 C 56.125 235.183594 56.335938 234.425781 55.988281 234.117188 L 55.890625 234.03125 Z M 56.429688 233.425781 L 56.9375 233.878906 C 57.597656 234.464844 58.632812 235.019531 59.777344 233.734375 C 60.6875 232.707031 60.242188 231.707031 59.894531 231.402344 L 58.964844 230.574219 L 56.429688 233.425781 " fill-opacity="1" fill-rule="nonzero"/><path fill="#dadada" d="M 64.859375 244.027344 C 65.414062 244.414062 64.003906 246.039062 66.136719 247.527344 C 66.875 248.039062 67.882812 248.054688 68.511719 247.152344 C 69.882812 245.183594 65.113281 242.898438 67.222656 239.875 C 68.238281 238.417969 70.3125 238.398438 71.675781 239.347656 C 72.171875 239.695312 72.460938 240.089844 72.65625 240.417969 C 72.84375 240.761719 72.941406 241.023438 73.082031 241.121094 C 73.226562 241.222656 73.386719 241.140625 73.503906 241.046875 L 74.0625 241.433594 L 72.601562 243.535156 L 72.21875 243.269531 C 71.378906 242.683594 73.097656 241.328125 71.402344 240.144531 C 70.761719 239.699219 69.890625 239.710938 69.410156 240.398438 C 68.15625 242.199219 72.992188 244.386719 70.835938 247.484375 C 69.644531 249.191406 67.230469 249.273438 65.617188 248.148438 C 64.546875 247.40625 64.300781 246.542969 64.003906 246.339844 C 63.851562 246.230469 63.703125 246.289062 63.59375 246.421875 L 62.859375 245.910156 L 64.394531 243.703125 L 64.859375 244.027344 " fill-opacity="1" fill-rule="nonzero"/><path fill="#dadada" d="M 83.511719 246.953125 L 83.40625 247.140625 C 82.933594 247.988281 82.617188 246.863281 82.058594 247.863281 L 78.570312 254.109375 C 78.011719 255.109375 79.136719 254.789062 78.664062 255.636719 L 78.558594 255.824219 L 75.035156 253.859375 L 75.140625 253.667969 C 75.613281 252.824219 75.929688 253.945312 76.488281 252.949219 L 79.976562 246.699219 C 80.535156 245.703125 79.414062 246.019531 79.886719 245.175781 L 79.992188 244.984375 L 83.511719 246.953125 " fill-opacity="1" fill-rule="nonzero"/><path fill="#dadada" d="M 89.097656 249.480469 C 89.316406 249.808594 89.691406 250.078125 90.050781 250.234375 L 95.804688 252.699219 C 96.160156 252.851562 96.613281 252.9375 97.003906 252.867188 L 95.921875 255.394531 L 95.550781 255.234375 C 94.644531 254.847656 96.476562 253.808594 94.21875 252.835938 L 93.726562 252.625 L 90.609375 259.894531 C 90.160156 260.945312 91.335938 260.550781 90.953125 261.441406 L 90.867188 261.640625 L 86.972656 259.972656 L 87.058594 259.773438 C 87.441406 258.882812 87.96875 260.003906 88.417969 258.957031 L 91.53125 251.6875 L 91.042969 251.476562 C 88.78125 250.507812 89.289062 252.550781 88.386719 252.164062 L 88.015625 252.003906 L 89.097656 249.480469 " fill-opacity="1" fill-rule="nonzero"/><path fill="#dadada" d="M 101.628906 262.449219 L 100.953125 263.257812 C 100.792969 263.4375 100.601562 263.683594 100.527344 263.933594 C 100.304688 264.679688 101.453125 264.207031 101.179688 265.136719 L 101.117188 265.34375 L 98.222656 264.484375 L 98.28125 264.277344 C 98.59375 263.222656 98.769531 264.617188 100.085938 262.925781 L 104.417969 257.363281 L 104.386719 257.007812 C 104.378906 256.929688 104.3125 256.535156 104.34375 256.4375 C 104.394531 256.269531 104.632812 256.265625 104.761719 256.246094 L 106.105469 256.039062 C 106.1875 256.019531 106.375 255.984375 106.472656 256.011719 C 106.640625 256.0625 106.625 256.375 106.640625 256.621094 L 107.441406 265.675781 C 107.542969 266.914062 108.429688 266.210938 108.140625 267.195312 L 108.078125 267.402344 L 103.933594 266.175781 L 103.992188 265.96875 C 104.273438 265.027344 104.839844 265.917969 105.015625 265.320312 C 105.066406 265.152344 105.046875 265.011719 105.023438 264.839844 L 104.859375 263.40625 Z M 102.121094 261.75 L 104.851562 262.558594 L 104.492188 258.683594 L 102.121094 261.75 " fill-opacity="1" fill-rule="nonzero"/><path fill="#dadada" d="M 115.910156 266.328125 C 116.578125 266.441406 115.996094 268.511719 118.5625 268.941406 C 119.449219 269.089844 120.367188 268.671875 120.550781 267.589844 C 120.945312 265.222656 115.65625 265.203125 116.265625 261.566406 C 116.558594 259.8125 118.425781 258.90625 120.066406 259.183594 C 120.664062 259.28125 121.09375 259.515625 121.410156 259.730469 C 121.726562 259.957031 121.925781 260.152344 122.097656 260.179688 C 122.269531 260.210938 122.378906 260.066406 122.445312 259.933594 L 123.117188 260.042969 L 122.695312 262.566406 L 122.238281 262.492188 C 121.226562 262.324219 122.199219 260.359375 120.160156 260.019531 C 119.390625 259.890625 118.609375 260.273438 118.46875 261.097656 C 118.105469 263.265625 123.414062 263.171875 122.792969 266.894531 C 122.449219 268.949219 120.300781 270.054688 118.359375 269.726562 C 117.078125 269.515625 116.484375 268.84375 116.128906 268.785156 C 115.945312 268.753906 115.835938 268.867188 115.792969 269.035156 L 114.910156 268.886719 L 115.351562 266.234375 L 115.910156 266.328125 " fill-opacity="1" fill-rule="nonzero"/><path fill="#dadada" d="M 139.957031 271.351562 L 139.949219 271.09375 C 139.917969 270.195312 140.753906 270.9375 140.71875 269.824219 L 140.492188 262.671875 C 140.457031 261.574219 139.671875 262.351562 139.644531 261.457031 L 139.636719 261.195312 L 144.636719 261.035156 C 146.195312 260.988281 147.902344 261.457031 147.960938 263.304688 C 148.007812 264.777344 146.71875 265.601562 145.390625 265.773438 L 145.394531 265.800781 C 146.796875 265.785156 148.605469 266.335938 148.667969 268.257812 C 148.746094 270.730469 146.359375 271.152344 144.855469 271.199219 Z M 142.96875 265.542969 L 143.417969 265.53125 C 144.441406 265.496094 145.488281 265.101562 145.441406 263.601562 C 145.390625 262.097656 144.328125 261.855469 143.808594 261.875 L 142.855469 261.902344 Z M 143.125 270.445312 L 143.730469 270.421875 C 144.929688 270.386719 146.199219 270.203125 146.136719 268.324219 C 146.082031 266.515625 144.597656 266.304688 143.761719 266.328125 L 142.996094 266.355469 L 143.125 270.445312 " fill-opacity="1" fill-rule="nonzero"/><path fill="#dadada" d="M 159.101562 268.394531 C 159.277344 269.492188 159.957031 268.609375 160.097656 269.496094 L 160.136719 269.753906 L 156.183594 270.378906 L 156.144531 270.121094 C 156.003906 269.234375 156.921875 269.867188 156.746094 268.765625 L 155.628906 261.699219 C 155.453125 260.597656 154.773438 261.480469 154.632812 260.597656 L 154.59375 260.339844 L 160.234375 259.445312 C 161.261719 259.285156 163.015625 259.648438 163.304688 261.464844 C 163.621094 263.464844 162.03125 264.242188 160.71875 264.449219 L 160.332031 264.511719 L 160.335938 264.539062 C 161.460938 264.433594 161.820312 264.757812 162.488281 265.558594 L 164.488281 267.921875 C 165.027344 268.554688 165.40625 267.894531 165.523438 268.636719 L 165.5625 268.894531 L 162.453125 269.386719 L 159.914062 266.113281 C 159.640625 265.761719 159.183594 265.117188 158.726562 265.191406 L 158.597656 265.210938 Z M 158.472656 264.410156 L 159.144531 264.304688 C 160.015625 264.167969 161.101562 263.714844 160.832031 262.015625 C 160.617188 260.660156 159.5625 260.375 159.105469 260.445312 L 157.875 260.640625 L 158.472656 264.410156 " fill-opacity="1" fill-rule="nonzero"/><path fill="#dadada" d="M 173.289062 256.476562 L 173.351562 256.6875 C 173.621094 257.617188 172.613281 257.050781 172.933594 258.148438 L 174.453125 263.335938 C 174.875 264.765625 175.570312 265.753906 177.207031 265.273438 C 179.09375 264.71875 179.007812 263.132812 178.863281 262.648438 L 177.179688 256.902344 C 176.859375 255.808594 176.3125 256.828125 176.042969 255.898438 L 175.980469 255.6875 L 178.394531 254.980469 L 178.457031 255.191406 C 178.726562 256.121094 177.71875 255.554688 178.039062 256.652344 L 179.722656 262.398438 C 180.261719 264.226562 179.007812 265.664062 176.941406 266.269531 C 174.859375 266.878906 172.886719 266.464844 172.257812 264.328125 L 170.644531 258.820312 C 170.324219 257.722656 169.777344 258.742188 169.507812 257.8125 L 169.445312 257.605469 L 173.289062 256.476562 " fill-opacity="1" fill-rule="nonzero"/><path fill="#dadada" d="M 189.589844 259.640625 C 189.554688 259.84375 189.496094 260.1875 189.589844 260.398438 C 189.804688 260.886719 190.269531 260.039062 190.636719 260.886719 L 190.726562 261.085938 L 187.824219 262.351562 L 187.738281 262.152344 C 187.292969 261.132812 188.246094 262.058594 188.625 260 L 189.28125 256.445312 L 185.339844 253.78125 C 184.359375 253.121094 184.34375 254.136719 183.933594 253.199219 L 183.847656 253 L 187.847656 251.25 L 187.945312 251.476562 C 188.269531 252.21875 187.375 252.085938 187.535156 252.445312 C 187.578125 252.550781 187.792969 252.679688 187.878906 252.734375 L 190.050781 254.199219 L 190.464844 251.9375 C 190.496094 251.75 190.578125 251.398438 190.496094 251.210938 C 190.289062 250.734375 189.765625 251.59375 189.417969 250.800781 L 189.332031 250.601562 L 192.207031 249.34375 L 192.304688 249.570312 C 192.710938 250.496094 191.722656 249.902344 191.488281 251.207031 L 190.847656 254.71875 L 195.21875 257.714844 C 196.136719 258.339844 196.21875 257.515625 196.558594 258.296875 L 196.648438 258.496094 L 192.554688 260.285156 L 192.464844 260.085938 C 192.113281 259.277344 193.113281 259.503906 192.898438 259.015625 C 192.792969 258.777344 192.410156 258.550781 192.210938 258.414062 L 190.0625 256.972656 L 189.589844 259.640625 " fill-opacity="1" fill-rule="nonzero"/><path fill="#dadada" d="M 202.722656 248.734375 L 203.554688 248.238281 C 204.636719 247.597656 203.449219 247.125 204.308594 246.617188 L 204.535156 246.484375 L 206.003906 248.972656 L 205.667969 249.171875 C 204.949219 249.601562 204.875 248.398438 203.96875 248.9375 L 203.132812 249.429688 L 205.203125 252.925781 L 207.277344 251.699219 C 209.058594 250.648438 207.214844 249.570312 208.171875 249.003906 L 208.46875 248.828125 L 209.832031 251.128906 L 202.863281 255.25 L 202.730469 255.027344 C 202.273438 254.253906 203.359375 254.5 202.792969 253.542969 L 199.152344 247.382812 C 198.585938 246.425781 198.277344 247.496094 197.824219 246.726562 L 197.691406 246.5 L 203.164062 243.265625 C 203.503906 243.0625 203.835938 242.75 204.011719 242.394531 L 205.394531 244.734375 L 205.023438 244.953125 C 204.289062 245.386719 203.902344 243.769531 202.472656 244.617188 L 200.851562 245.570312 L 202.722656 248.734375 " fill-opacity="1" fill-rule="nonzero"/><path fill="#dadada" d="M 221.882812 242.464844 L 215.8125 247.070312 L 215.65625 246.863281 C 215.113281 246.152344 216.234375 246.261719 215.5625 245.375 L 211.234375 239.675781 C 210.5625 238.789062 210.367188 239.898438 209.828125 239.183594 L 209.671875 238.976562 L 212.972656 236.46875 L 213.132812 236.675781 C 213.671875 237.386719 212.460938 237.347656 213.132812 238.234375 L 217.882812 244.484375 L 218.734375 243.839844 C 221.347656 241.855469 219.023438 241.277344 220.035156 240.507812 L 220.265625 240.335938 L 221.882812 242.464844 " fill-opacity="1" fill-rule="nonzero"/><path fill="#dadada" d="M 232.796875 232.578125 L 227.28125 237.839844 L 227.101562 237.652344 C 226.484375 237 227.609375 236.988281 226.839844 236.183594 L 221.902344 231.003906 C 221.132812 230.199219 221.066406 231.320312 220.445312 230.671875 L 220.265625 230.484375 L 223.269531 227.621094 L 223.449219 227.808594 C 224.066406 228.457031 222.859375 228.550781 223.628906 229.355469 L 229.046875 235.039062 L 229.820312 234.296875 C 232.195312 232.035156 229.820312 231.722656 230.738281 230.84375 L 230.949219 230.644531 L 232.796875 232.578125 " fill-opacity="1" fill-rule="nonzero"/><path fill="#dadada" d="M 235.332031 221.277344 L 235.953125 220.535156 C 236.757812 219.566406 235.480469 219.519531 236.117188 218.753906 L 236.285156 218.554688 L 238.507812 220.402344 L 238.257812 220.703125 C 237.71875 221.347656 237.25 220.242188 236.574219 221.050781 L 235.957031 221.796875 L 239.078125 224.394531 L 240.621094 222.539062 C 241.945312 220.949219 239.84375 220.558594 240.558594 219.703125 L 240.777344 219.433594 L 242.835938 221.144531 L 237.65625 227.367188 L 237.457031 227.203125 C 236.769531 226.628906 237.875 226.496094 237.019531 225.785156 L 231.519531 221.207031 C 230.664062 220.496094 230.734375 221.609375 230.042969 221.035156 L 229.84375 220.867188 L 233.914062 215.976562 C 234.164062 215.679688 234.371094 215.269531 234.417969 214.875 L 236.503906 216.613281 L 236.230469 216.945312 C 235.683594 217.601562 234.773438 216.207031 233.710938 217.484375 L 232.511719 218.929688 L 235.332031 221.277344 " fill-opacity="1" fill-rule="nonzero"/><path fill="#dadada" d="M 247.78125 206.664062 L 243.976562 204.222656 C 243.015625 203.605469 243.261719 204.742188 242.445312 204.21875 L 242.265625 204.101562 L 243.632812 201.972656 L 243.8125 202.089844 C 244.628906 202.613281 243.496094 202.847656 244.460938 203.464844 L 251.746094 208.144531 L 251.183594 209.019531 L 241.105469 209.199219 L 246.898438 212.917969 C 247.859375 213.535156 247.667969 212.308594 248.480469 212.832031 L 248.664062 212.949219 L 247.1875 215.25 L 247.003906 215.132812 C 246.191406 214.609375 247.375 214.289062 246.414062 213.671875 L 240.390625 209.804688 C 239.429688 209.1875 239.632812 210.402344 238.816406 209.875 L 238.632812 209.761719 L 240.5 206.851562 L 247.78125 206.664062 " fill-opacity="1" fill-rule="nonzero"/><path fill="#dadada" d="M 253.53125 199.375 C 253.828125 198.761719 255.652344 199.902344 256.785156 197.558594 C 257.175781 196.75 257.03125 195.75 256.042969 195.273438 C 253.882812 194.230469 252.378906 199.296875 249.058594 197.695312 C 247.460938 196.921875 247.113281 194.875 247.839844 193.378906 C 248.101562 192.832031 248.445312 192.484375 248.742188 192.242188 C 249.046875 192.003906 249.292969 191.867188 249.367188 191.707031 C 249.441406 191.554688 249.335938 191.40625 249.226562 191.304688 L 249.523438 190.691406 L 251.824219 191.804688 L 251.625 192.222656 C 251.175781 193.144531 249.566406 191.660156 248.667969 193.523438 C 248.328125 194.226562 248.476562 195.082031 249.230469 195.449219 C 251.207031 196.402344 252.609375 191.285156 256.003906 192.925781 C 257.878906 193.832031 258.339844 196.203125 257.480469 197.976562 C 256.917969 199.148438 256.105469 199.527344 255.949219 199.851562 C 255.867188 200.019531 255.945312 200.15625 256.097656 200.246094 L 255.707031 201.050781 L 253.285156 199.882812 L 253.53125 199.375 " fill-opacity="1" fill-rule="nonzero"/><path fill="#dadada" d="M 253.476562 180.492188 L 253.679688 180.566406 C 254.585938 180.898438 253.53125 181.390625 254.605469 181.78125 L 261.324219 184.238281 C 262.398438 184.628906 261.90625 183.574219 262.816406 183.90625 L 263.019531 183.980469 L 261.636719 187.769531 L 261.433594 187.695312 C 260.523438 187.363281 261.578125 186.871094 260.507812 186.480469 L 253.785156 184.023438 C 252.710938 183.628906 253.203125 184.6875 252.292969 184.355469 L 252.089844 184.28125 L 253.476562 180.492188 " fill-opacity="1" fill-rule="nonzero"/><path fill="#dadada" d="M 262.773438 175.886719 C 262.941406 175.226562 264.957031 175.984375 265.601562 173.460938 C 265.824219 172.59375 265.488281 171.640625 264.421875 171.367188 C 262.097656 170.773438 261.628906 176.042969 258.058594 175.128906 C 256.335938 174.6875 255.59375 172.75 256.003906 171.140625 C 256.15625 170.550781 256.421875 170.144531 256.664062 169.847656 C 256.917969 169.554688 257.128906 169.367188 257.171875 169.199219 C 257.214844 169.03125 257.082031 168.910156 256.953125 168.832031 L 257.121094 168.171875 L 259.601562 168.808594 L 259.488281 169.253906 C 259.230469 170.25 257.359375 169.113281 256.847656 171.117188 C 256.652344 171.875 256.96875 172.683594 257.78125 172.894531 C 259.910156 173.4375 260.265625 168.140625 263.917969 169.074219 C 265.9375 169.59375 266.855469 171.828125 266.367188 173.730469 C 266.046875 174.992188 265.328125 175.523438 265.238281 175.875 C 265.191406 176.058594 265.296875 176.171875 265.460938 176.230469 L 265.238281 177.097656 L 262.632812 176.433594 L 262.773438 175.886719 " fill-opacity="1" fill-rule="nonzero"/></svg>